<svg id="a" xmlns="http://www.w3.org/2000/svg" width="212.794" height="46.989" viewBox="0 0 212.794 46.989"><g id="b" style="isolation:isolate;"><g style="isolation:isolate;"><path d="M27.452,31.381h-6.425v-13.385l-5.795,7.75h-.507l-5.81-7.75v13.385H2.674V8.278h5.826l6.548,8.667,6.579-8.667h5.825v23.103Z" style="fill:#fff; stroke-width:0px;"/><path d="M56.227,31.381h-6.579l-1.737-4.684h-9.253l-1.768,4.684h-6.579l9.422-23.103h7.101l9.392,23.103ZM46.436,22.68l-3.121-8.435-3.151,8.435h6.271Z" style="fill:#fff; stroke-width:0px;"/><path d="M86.845,15.545c0,.856-.136,1.692-.408,2.509-.271.816-.709,1.578-1.314,2.283-.605.706-1.422,1.278-2.452,1.717s-2.242.658-3.635.658h-4.211v8.668h-6.425V8.278h10.637c1.394,0,2.605.222,3.635.667,1.03.445,1.847,1.022,2.452,1.733.604.711,1.042,1.484,1.314,2.317s.408,1.684.408,2.55ZM80.297,15.579c0-1.1-.299-1.853-.899-2.259-.6-.405-1.673-.608-3.22-.608h-1.353v5.567h1.383c1.065,0,1.885-.072,2.459-.216.574-.145.989-.411,1.245-.8.256-.389.384-.95.384-1.684Z" style="fill:#fff; stroke-width:0px;"/><path d="M106.597,31.381h-16.186V8.278h6.425v17.569h9.761v5.534Z" style="fill:#fff; stroke-width:0px;"/><path d="M140.105,13.895h-7.809v17.486h-6.41V13.895h-7.808v-5.617h22.026v5.617Z" style="fill:#fff; stroke-width:0px;"/><path d="M159.918,31.381h-16.062V8.278h15.801v4.634h-9.376v4.234h8.946v4.651h-8.946v4.934h9.638v4.65Z" style="fill:#fff; stroke-width:0px;"/><path d="M183.297,29.647c-.882.5-1.783.899-2.705,1.2-.923.3-1.853.514-2.79.642s-1.908.191-2.913.191c-1.854,0-3.518-.278-4.987-.833-1.471-.556-2.746-1.375-3.827-2.459-1.082-1.084-1.891-2.35-2.429-3.801-.538-1.45-.808-3.042-.808-4.775,0-1.989.318-3.731.953-5.226.636-1.495,1.524-2.736,2.667-3.726,1.143-.989,2.444-1.72,3.904-2.192s3-.708,4.619-.708c2.418,0,5.159.583,8.223,1.75v6.134c-1.055-.711-2.098-1.303-3.128-1.775-1.029-.473-2.241-.708-3.635-.708-1.24,0-2.397.267-3.474.8-1.076.534-1.942,1.295-2.598,2.284-.656.989-.984,2.145-.984,3.467,0,1.167.287,2.236.861,3.209.573.972,1.37,1.745,2.39,2.317s2.17.858,3.451.858c1.035,0,2.014-.137,2.936-.408.923-.272,1.699-.575,2.329-.908.63-.334,1.278-.729,1.944-1.184v5.851Z" style="fill:#fff; stroke-width:0px;"/><path d="M210.119,31.381h-6.41v-9.018h-9.668v9.018h-6.425V8.278h6.425v8.484h9.668v-8.484h6.41v23.103Z" style="fill:#fff; stroke-width:0px;"/></g></g><path id="c" d="M61.682,0v46.989" style="fill:none; stroke:#ffffff; stroke-miterlimit:22.677; stroke-width:5.871px;"/></svg>
