<svg xmlns="http://www.w3.org/2000/svg" viewBox="0 0 600 400" fill="none">
  <rect width="600" height="400" fill="#0a0a0a"/>
  <!-- Dashboard frame -->
  <rect x="50" y="35" width="500" height="330" rx="12" fill="#111" stroke="#222" stroke-width="1.5"/>
  <!-- Top bar -->
  <rect x="50" y="35" width="500" height="40" rx="12" fill="#0d0d0d"/>
  <rect x="65" y="48" width="80" height="14" rx="2" fill="#F03350" opacity="0.6"/>
  <rect x="440" y="50" width="24" height="24" rx="12" fill="#1a1a1a"/>
  <rect x="468" y="50" width="24" height="24" rx="12" fill="#1a1a1a"/>
  <rect x="496" y="50" width="24" height="24" rx="12" fill="#222"/>
  <!-- Stats row -->
  <rect x="65" y="90" width="115" height="60" rx="8" fill="#151515" stroke="#222" stroke-width="0.8"/>
  <rect x="80" y="103" width="40" height="5" rx="1" fill="#666"/>
  <text x="80" y="130" fill="#fff" font-family="sans-serif" font-size="20" font-weight="bold" opacity="0.9">$24.8K</text>

  <rect x="190" y="90" width="115" height="60" rx="8" fill="#151515" stroke="#222" stroke-width="0.8"/>
  <rect x="205" y="103" width="45" height="5" rx="1" fill="#666"/>
  <text x="205" y="130" fill="#33F0D0" font-family="sans-serif" font-size="20" font-weight="bold" opacity="0.9">1,247</text>

  <rect x="315" y="90" width="115" height="60" rx="8" fill="#151515" stroke="#222" stroke-width="0.8"/>
  <rect x="330" y="103" width="55" height="5" rx="1" fill="#666"/>
  <text x="330" y="130" fill="#F03350" font-family="sans-serif" font-size="20" font-weight="bold" opacity="0.9">98.2%</text>

  <rect x="440" y="90" width="95" height="60" rx="8" fill="#151515" stroke="#222" stroke-width="0.8"/>
  <rect x="455" y="103" width="35" height="5" rx="1" fill="#666"/>
  <text x="455" y="130" fill="#fff" font-family="sans-serif" font-size="20" font-weight="bold" opacity="0.7">42</text>
  <!-- Chart area -->
  <rect x="65" y="165" width="310" height="180" rx="8" fill="#151515" stroke="#222" stroke-width="0.8"/>
  <rect x="80" y="178" width="80" height="6" rx="1" fill="#fff" opacity="0.6"/>
  <rect x="80" y="189" width="50" height="4" rx="1" fill="#666"/>
  <!-- Chart grid lines -->
  <line x1="80" y1="220" x2="360" y2="220" stroke="#222" stroke-width="0.5"/>
  <line x1="80" y1="250" x2="360" y2="250" stroke="#222" stroke-width="0.5"/>
  <line x1="80" y1="280" x2="360" y2="280" stroke="#222" stroke-width="0.5"/>
  <line x1="80" y1="310" x2="360" y2="310" stroke="#222" stroke-width="0.5"/>
  <!-- Chart bars -->
  <rect x="100" y="240" width="22" height="85" rx="3" fill="#F03350" opacity="0.6"/>
  <rect x="135" y="215" width="22" height="110" rx="3" fill="#F03350" opacity="0.7"/>
  <rect x="170" y="230" width="22" height="95" rx="3" fill="#F03350" opacity="0.5"/>
  <rect x="205" y="200" width="22" height="125" rx="3" fill="#F03350" opacity="0.8"/>
  <rect x="240" y="210" width="22" height="115" rx="3" fill="#33F0D0" opacity="0.6"/>
  <rect x="275" y="195" width="22" height="130" rx="3" fill="#33F0D0" opacity="0.7"/>
  <rect x="310" y="225" width="22" height="100" rx="3" fill="#33F0D0" opacity="0.5"/>
  <rect x="345" y="205" width="22" height="120" rx="3" fill="#F03350" opacity="0.65"/>
  <!-- Side panel - Recent activity -->
  <rect x="390" y="165" width="145" height="180" rx="8" fill="#151515" stroke="#222" stroke-width="0.8"/>
  <rect x="405" y="178" width="70" height="6" rx="1" fill="#fff" opacity="0.6"/>
  <!-- Activity items -->
  <circle cx="415" cy="208" r="6" fill="#F03350" opacity="0.3"/>
  <rect x="428" y="204" width="80" height="4" rx="1" fill="#555"/>
  <rect x="428" y="212" width="55" height="3" rx="1" fill="#333"/>
  <circle cx="415" cy="234" r="6" fill="#33F0D0" opacity="0.3"/>
  <rect x="428" y="230" width="70" height="4" rx="1" fill="#555"/>
  <rect x="428" y="238" width="60" height="3" rx="1" fill="#333"/>
  <circle cx="415" cy="260" r="6" fill="#F03350" opacity="0.3"/>
  <rect x="428" y="256" width="85" height="4" rx="1" fill="#555"/>
  <rect x="428" y="264" width="50" height="3" rx="1" fill="#333"/>
  <circle cx="415" cy="286" r="6" fill="#fff" opacity="0.15"/>
  <rect x="428" y="282" width="75" height="4" rx="1" fill="#555"/>
  <rect x="428" y="290" width="45" height="3" rx="1" fill="#333"/>
  <circle cx="415" cy="312" r="6" fill="#33F0D0" opacity="0.3"/>
  <rect x="428" y="308" width="65" height="4" rx="1" fill="#555"/>
  <rect x="428" y="316" width="50" height="3" rx="1" fill="#333"/>
</svg>
