<svg xmlns="http://www.w3.org/2000/svg" viewBox="0 0 600 400" fill="none">
  <rect width="600" height="400" fill="#0a0a0a"/>
  <!-- Map outline suggestion (Nigeria shape abstracted) -->
  <path d="M250 60 L350 55 L380 90 L400 130 L390 180 L370 220 L340 250 L300 270 L260 260 L230 230 L210 190 L220 140 L230 100 Z" fill="none" stroke="#33F0D0" stroke-width="0.8" opacity="0.15"/>
  <path d="M250 60 L350 55 L380 90 L400 130 L390 180 L370 220 L340 250 L300 270 L260 260 L230 230 L210 190 L220 140 L230 100 Z" fill="#33F0D0" opacity="0.02"/>
  <!-- Connection lines from Lagos/Abuja area -->
  <line x1="300" y1="180" x2="120" y2="120" stroke="#F03350" stroke-width="0.5" opacity="0.2"/>
  <line x1="300" y1="180" x2="480" y2="120" stroke="#F03350" stroke-width="0.5" opacity="0.2"/>
  <line x1="300" y1="180" x2="140" y2="300" stroke="#33F0D0" stroke-width="0.5" opacity="0.2"/>
  <line x1="300" y1="180" x2="460" y2="300" stroke="#33F0D0" stroke-width="0.5" opacity="0.2"/>
  <line x1="300" y1="180" x2="300" y2="340" stroke="#F03350" stroke-width="0.5" opacity="0.15"/>
  <!-- Central node - Lagos office -->
  <circle cx="300" cy="180" r="32" fill="#151515" stroke="#33F0D0" stroke-width="1.5" opacity="0.7"/>
  <circle cx="300" cy="172" r="11" fill="#333"/>
  <rect x="286" y="188" width="28" height="4" rx="1" fill="#33F0D0" opacity="0.6"/>
  <rect x="290" y="196" width="20" height="3" rx="1" fill="#555"/>
  <!-- Team members -->
  <circle cx="120" cy="120" r="26" fill="#151515" stroke="#222" stroke-width="1"/>
  <circle cx="120" cy="112" r="9" fill="#333"/>
  <rect x="108" y="126" width="24" height="3" rx="1" fill="#ccc"/>
  <rect x="112" y="133" width="16" height="3" rx="1" fill="#555"/>
  <circle cx="480" cy="120" r="26" fill="#151515" stroke="#222" stroke-width="1"/>
  <circle cx="480" cy="112" r="9" fill="#333"/>
  <rect x="468" y="126" width="24" height="3" rx="1" fill="#ccc"/>
  <rect x="472" y="133" width="16" height="3" rx="1" fill="#555"/>
  <circle cx="140" cy="300" r="26" fill="#151515" stroke="#33F0D0" stroke-width="0.8" opacity="0.5"/>
  <circle cx="140" cy="292" r="9" fill="#333"/>
  <rect x="128" y="306" width="24" height="3" rx="1" fill="#ccc"/>
  <rect x="132" y="313" width="16" height="3" rx="1" fill="#555"/>
  <circle cx="460" cy="300" r="26" fill="#151515" stroke="#33F0D0" stroke-width="0.8" opacity="0.5"/>
  <circle cx="460" cy="292" r="9" fill="#333"/>
  <rect x="448" y="306" width="24" height="3" rx="1" fill="#ccc"/>
  <rect x="452" y="313" width="16" height="3" rx="1" fill="#555"/>
  <circle cx="300" cy="340" r="22" fill="#151515" stroke="#222" stroke-width="1"/>
  <circle cx="300" cy="333" r="8" fill="#333"/>
  <rect x="290" y="346" width="20" height="3" rx="1" fill="#999"/>
  <!-- Stat cards -->
  <rect x="40" y="40" width="100" height="55" rx="8" fill="#151515" stroke="#222" stroke-width="0.8"/>
  <rect x="54" y="52" width="40" height="4" rx="1" fill="#666"/>
  <text x="54" y="76" fill="#33F0D0" font-family="sans-serif" font-size="16" font-weight="bold" opacity="0.8">Lagos</text>
  <rect x="460" y="40" width="100" height="55" rx="8" fill="#151515" stroke="#222" stroke-width="0.8"/>
  <rect x="474" y="52" width="45" height="4" rx="1" fill="#666"/>
  <text x="474" y="76" fill="#F03350" font-family="sans-serif" font-size="16" font-weight="bold" opacity="0.8">Abuja</text>
  <!-- Nigeria green accent -->
  <rect x="265" y="142" width="70" height="3" rx="1.5" fill="#33F0D0" opacity="0.3"/>
  <!-- Pulse rings -->
  <circle cx="300" cy="180" r="48" fill="none" stroke="#33F0D0" stroke-width="0.4" opacity="0.12"/>
  <circle cx="300" cy="180" r="68" fill="none" stroke="#33F0D0" stroke-width="0.3" opacity="0.06"/>
</svg>