<svg xmlns="http://www.w3.org/2000/svg" viewBox="0 0 600 400" fill="none">
  <rect width="600" height="400" fill="#0a0a0a"/>
  <!-- Browser frame -->
  <rect x="40" y="30" width="520" height="340" rx="12" fill="#111" stroke="#222" stroke-width="1.5"/>
  <rect x="40" y="30" width="520" height="36" rx="12" fill="#0d0d0d"/>
  <circle cx="62" cy="48" r="5" fill="#F03350" opacity="0.4"/>
  <circle cx="78" cy="48" r="5" fill="#FFB800" opacity="0.3"/>
  <circle cx="94" cy="48" r="5" fill="#33F0D0" opacity="0.3"/>
  <rect x="180" y="42" width="240" height="12" rx="6" fill="#1a1a1a"/>
  <!-- Nav -->
  <rect x="60" y="78" width="65" height="8" rx="1" fill="#F03350" opacity="0.5"/>
  <rect x="340" y="78" width="35" height="6" rx="1" fill="#555"/>
  <rect x="385" y="78" width="40" height="6" rx="1" fill="#555"/>
  <rect x="435" y="78" width="30" height="6" rx="1" fill="#555"/>
  <rect x="480" y="74" width="60" height="14" rx="7" fill="#F03350" opacity="0.3"/>
  <rect x="490" y="78" width="40" height="6" rx="1" fill="#F03350" opacity="0.6"/>
  <!-- Hero banner -->
  <rect x="60" y="100" width="480" height="95" rx="8" fill="#151515"/>
  <rect x="60" y="100" width="480" height="95" rx="8" fill="url(#eventGrad)" opacity="0.3"/>
  <defs>
    <linearGradient id="eventGrad" x1="0" y1="0" x2="1" y2="1">
      <stop offset="0%" stop-color="#F03350"/>
      <stop offset="100%" stop-color="#1a0a0a"/>
    </linearGradient>
  </defs>
  <rect x="80" y="115" width="150" height="8" rx="1" fill="#fff" opacity="0.85"/>
  <rect x="80" y="130" width="220" height="5" rx="1" fill="#fff" opacity="0.35"/>
  <rect x="80" y="140" width="180" height="5" rx="1" fill="#fff" opacity="0.25"/>
  <rect x="80" y="158" width="80" height="22" rx="11" fill="#F03350" opacity="0.6"/>
  <rect x="170" y="158" width="70" height="22" rx="11" fill="#222" stroke="#333" stroke-width="0.5"/>
  <!-- Event date badge -->
  <rect x="440" y="115" width="80" height="60" rx="8" fill="#111" stroke="#F03350" stroke-width="0.8" opacity="0.7"/>
  <text x="480" y="140" text-anchor="middle" fill="#F03350" font-family="sans-serif" font-size="20" font-weight="bold" opacity="0.8">15</text>
  <text x="480" y="158" text-anchor="middle" fill="#fff" font-family="sans-serif" font-size="10" opacity="0.5">MAR</text>
  <!-- Upcoming events list -->
  <rect x="60" y="210" width="40" height="6" rx="1" fill="#fff" opacity="0.6"/>
  <rect x="60" y="230" width="230" height="55" rx="8" fill="#151515" stroke="#222" stroke-width="0.5"/>
  <rect x="75" y="240" width="10" height="35" rx="3" fill="#F03350" opacity="0.4"/>
  <rect x="95" y="242" width="100" height="5" rx="1" fill="#ccc"/>
  <rect x="95" y="252" width="150" height="4" rx="1" fill="#555"/>
  <rect x="95" y="262" width="50" height="4" rx="1" fill="#666"/>
  <rect x="200" y="262" width="40" height="12" rx="6" fill="#F03350" opacity="0.15"/>
  <rect x="60" y="295" width="230" height="55" rx="8" fill="#151515" stroke="#222" stroke-width="0.5"/>
  <rect x="75" y="305" width="10" height="35" rx="3" fill="#33F0D0" opacity="0.4"/>
  <rect x="95" y="307" width="120" height="5" rx="1" fill="#ccc"/>
  <rect x="95" y="317" width="140" height="4" rx="1" fill="#555"/>
  <rect x="95" y="327" width="60" height="4" rx="1" fill="#666"/>
  <rect x="200" y="327" width="40" height="12" rx="6" fill="#33F0D0" opacity="0.15"/>
  <!-- Members panel -->
  <rect x="310" y="210" width="230" height="150" rx="8" fill="#151515" stroke="#222" stroke-width="0.5"/>
  <rect x="325" y="224" width="60" height="6" rx="1" fill="#fff" opacity="0.6"/>
  <!-- Member avatars -->
  <circle cx="340" cy="258" r="14" fill="#1a1a1a" stroke="#F03350" stroke-width="0.8" opacity="0.5"/>
  <circle cx="370" cy="258" r="14" fill="#1a1a1a" stroke="#33F0D0" stroke-width="0.8" opacity="0.5"/>
  <circle cx="400" cy="258" r="14" fill="#1a1a1a" stroke="#F03350" stroke-width="0.8" opacity="0.3"/>
  <circle cx="430" cy="258" r="14" fill="#1a1a1a" stroke="#fff" stroke-width="0.5" opacity="0.2"/>
  <circle cx="460" cy="258" r="14" fill="#1a1a1a" stroke="#fff" stroke-width="0.5" opacity="0.2"/>
  <text x="490" y="262" fill="#666" font-family="sans-serif" font-size="11">+42</text>
  <!-- Stats row -->
  <rect x="325" y="290" width="90" height="50" rx="6" fill="#111" stroke="#222" stroke-width="0.5"/>
  <text x="340" y="315" fill="#F03350" font-family="sans-serif" font-size="16" font-weight="bold" opacity="0.8">156</text>
  <rect x="340" y="324" width="45" height="4" rx="1" fill="#666"/>
  <rect x="430" y="290" width="90" height="50" rx="6" fill="#111" stroke="#222" stroke-width="0.5"/>
  <text x="445" y="315" fill="#33F0D0" font-family="sans-serif" font-size="16" font-weight="bold" opacity="0.8">89%</text>
  <rect x="445" y="324" width="50" height="4" rx="1" fill="#666"/>
</svg>
