<svg xmlns="http://www.w3.org/2000/svg" viewBox="0 0 600 400" fill="none">
  <rect width="600" height="400" fill="#0a0a0a"/>
  <!-- Browser frame -->
  <rect x="40" y="30" width="520" height="340" rx="12" fill="#111" stroke="#222" stroke-width="1.5"/>
  <rect x="40" y="30" width="520" height="36" rx="12" fill="#0d0d0d"/>
  <circle cx="62" cy="48" r="5" fill="#F03350" opacity="0.4"/>
  <circle cx="78" cy="48" r="5" fill="#FFB800" opacity="0.3"/>
  <circle cx="94" cy="48" r="5" fill="#33F0D0" opacity="0.3"/>
  <rect x="180" y="42" width="240" height="12" rx="6" fill="#1a1a1a"/>
  <!-- Nav -->
  <rect x="60" y="78" width="60" height="8" rx="1" fill="#fff" opacity="0.6"/>
  <rect x="380" y="78" width="30" height="6" rx="1" fill="#555"/>
  <rect x="420" y="78" width="40" height="6" rx="1" fill="#555"/>
  <rect x="470" y="78" width="25" height="6" rx="1" fill="#555"/>
  <!-- Search bar -->
  <rect x="510" y="74" width="30" height="14" rx="7" fill="#1a1a1a"/>
  <!-- Product grid -->
  <rect x="60" y="100" width="150" height="130" rx="8" fill="#151515" stroke="#222" stroke-width="0.5"/>
  <rect x="60" y="100" width="150" height="80" rx="8" fill="#1a1a1a"/>
  <rect x="100" y="120" width="70" height="40" rx="4" fill="#222"/>
  <!-- Product image placeholder icon -->
  <rect x="120" y="130" width="30" height="20" rx="2" fill="#333"/>
  <rect x="72" y="190" width="80" height="5" rx="1" fill="#ccc"/>
  <rect x="72" y="200" width="45" height="4" rx="1" fill="#F03350" opacity="0.7"/>
  <rect x="72" y="212" width="60" height="10" rx="5" fill="#F03350" opacity="0.2"/>
  <rect x="82" y="214" width="40" height="6" rx="1" fill="#F03350" opacity="0.5"/>

  <rect x="225" y="100" width="150" height="130" rx="8" fill="#151515" stroke="#222" stroke-width="0.5"/>
  <rect x="225" y="100" width="150" height="80" rx="8" fill="#1a1a1a"/>
  <rect x="265" y="120" width="70" height="40" rx="4" fill="#222"/>
  <rect x="285" y="130" width="30" height="20" rx="2" fill="#333"/>
  <rect x="237" y="190" width="90" height="5" rx="1" fill="#ccc"/>
  <rect x="237" y="200" width="50" height="4" rx="1" fill="#F03350" opacity="0.7"/>
  <rect x="237" y="212" width="60" height="10" rx="5" fill="#F03350" opacity="0.2"/>
  <rect x="247" y="214" width="40" height="6" rx="1" fill="#F03350" opacity="0.5"/>

  <rect x="390" y="100" width="150" height="130" rx="8" fill="#151515" stroke="#222" stroke-width="0.5"/>
  <rect x="390" y="100" width="150" height="80" rx="8" fill="#1a1a1a"/>
  <rect x="430" y="120" width="70" height="40" rx="4" fill="#222"/>
  <rect x="450" y="130" width="30" height="20" rx="2" fill="#333"/>
  <!-- Sale badge -->
  <rect x="496" y="108" width="36" height="16" rx="8" fill="#F03350" opacity="0.8"/>
  <rect x="503" y="114" width="22" height="4" rx="1" fill="#fff" opacity="0.9"/>
  <rect x="402" y="190" width="75" height="5" rx="1" fill="#ccc"/>
  <rect x="402" y="200" width="40" height="4" rx="1" fill="#F03350" opacity="0.7"/>
  <rect x="447" y="200" width="30" height="4" rx="1" fill="#555" opacity="0.5"/>
  <rect x="402" y="212" width="60" height="10" rx="5" fill="#F03350" opacity="0.2"/>
  <rect x="412" y="214" width="40" height="6" rx="1" fill="#F03350" opacity="0.5"/>

  <!-- Second row -->
  <rect x="60" y="245" width="150" height="110" rx="8" fill="#151515" stroke="#222" stroke-width="0.5"/>
  <rect x="60" y="245" width="150" height="65" rx="8" fill="#1a1a1a"/>
  <rect x="100" y="258" width="70" height="40" rx="4" fill="#222"/>
  <rect x="120" y="268" width="30" height="20" rx="2" fill="#333"/>
  <rect x="72" y="320" width="85" height="5" rx="1" fill="#ccc"/>
  <rect x="72" y="330" width="40" height="4" rx="1" fill="#F03350" opacity="0.7"/>
  <rect x="72" y="342" width="60" height="10" rx="5" fill="#F03350" opacity="0.2"/>

  <rect x="225" y="245" width="150" height="110" rx="8" fill="#151515" stroke="#222" stroke-width="0.5"/>
  <rect x="225" y="245" width="150" height="65" rx="8" fill="#1a1a1a"/>
  <rect x="265" y="258" width="70" height="40" rx="4" fill="#222"/>
  <rect x="285" y="268" width="30" height="20" rx="2" fill="#333"/>
  <rect x="237" y="320" width="70" height="5" rx="1" fill="#ccc"/>
  <rect x="237" y="330" width="45" height="4" rx="1" fill="#F03350" opacity="0.7"/>
  <rect x="237" y="342" width="60" height="10" rx="5" fill="#F03350" opacity="0.2"/>

  <rect x="390" y="245" width="150" height="110" rx="8" fill="#151515" stroke="#222" stroke-width="0.5"/>
  <rect x="390" y="245" width="150" height="65" rx="8" fill="#1a1a1a"/>
  <rect x="430" y="258" width="70" height="40" rx="4" fill="#222"/>
  <rect x="450" y="268" width="30" height="20" rx="2" fill="#333"/>
  <rect x="402" y="320" width="95" height="5" rx="1" fill="#ccc"/>
  <rect x="402" y="330" width="50" height="4" rx="1" fill="#F03350" opacity="0.7"/>
  <rect x="402" y="342" width="60" height="10" rx="5" fill="#F03350" opacity="0.2"/>
</svg>