<svg xmlns="http://www.w3.org/2000/svg" viewBox="0 0 600 400" fill="none">
  <rect width="600" height="400" fill="#0a0a0a"/>
  <!-- Browser frame -->
  <rect x="40" y="25" width="520" height="350" rx="12" fill="#111" stroke="#222" stroke-width="1.5"/>
  <rect x="40" y="25" width="520" height="36" rx="12" fill="#0d0d0d"/>
  <circle cx="62" cy="43" r="5" fill="#F03350" opacity="0.4"/>
  <circle cx="78" cy="43" r="5" fill="#FFB800" opacity="0.3"/>
  <circle cx="94" cy="43" r="5" fill="#33F0D0" opacity="0.3"/>
  <rect x="180" y="37" width="240" height="12" rx="6" fill="#1a1a1a"/>
  <!-- Nav -->
  <rect x="60" y="73" width="60" height="8" rx="1" fill="#F03350" opacity="0.55"/>
  <rect x="350" y="73" width="30" height="6" rx="1" fill="#555"/>
  <rect x="390" y="73" width="45" height="6" rx="1" fill="#555"/>
  <rect x="445" y="73" width="35" height="6" rx="1" fill="#555"/>
  <rect x="495" y="69" width="50" height="14" rx="7" fill="#F03350" opacity="0.3"/>
  <!-- Hero split layout -->
  <rect x="60" y="95" width="240" height="130" rx="0" fill="none"/>
  <rect x="72" y="108" width="100" height="7" rx="1" fill="#fff" opacity="0.85"/>
  <rect x="72" y="122" width="180" height="10" rx="1" fill="#fff" opacity="0.6"/>
  <rect x="72" y="140" width="200" height="5" rx="1" fill="#666"/>
  <rect x="72" y="150" width="160" height="5" rx="1" fill="#666"/>
  <rect x="72" y="170" width="90" height="26" rx="13" fill="#F03350" opacity="0.6"/>
  <rect x="172" y="170" width="80" height="26" rx="13" fill="#222" stroke="#333" stroke-width="0.5"/>
  <!-- Hero food image area -->
  <rect x="320" y="95" width="220" height="130" rx="10" fill="#151515" stroke="#222" stroke-width="0.5"/>
  <circle cx="430" cy="150" r="40" fill="#1a1a1a"/>
  <circle cx="430" cy="150" r="28" fill="#222"/>
  <circle cx="430" cy="150" r="8" fill="#F03350" opacity="0.2"/>
  <!-- Decorative food elements -->
  <circle cx="370" cy="125" r="12" fill="#1a1a1a"/>
  <circle cx="490" cy="180" r="10" fill="#1a1a1a"/>
  <rect x="395" y="198" width="70" height="12" rx="6" fill="#F03350" opacity="0.12"/>
  <text x="410" y="207" fill="#F03350" font-family="sans-serif" font-size="8" opacity="0.7">Order Now</text>
  <!-- Location finder section -->
  <rect x="60" y="240" width="240" height="120" rx="8" fill="#151515" stroke="#222" stroke-width="0.5"/>
  <rect x="75" y="254" width="80" height="6" rx="1" fill="#fff" opacity="0.6"/>
  <!-- Map placeholder -->
  <rect x="75" y="270" width="210" height="75" rx="4" fill="#1a1a1a"/>
  <!-- Map dots -->
  <circle cx="140" cy="300" r="4" fill="#F03350" opacity="0.6"/>
  <circle cx="140" cy="300" r="8" fill="#F03350" opacity="0.1"/>
  <circle cx="200" cy="315" r="4" fill="#F03350" opacity="0.6"/>
  <circle cx="200" cy="315" r="8" fill="#F03350" opacity="0.1"/>
  <circle cx="250" cy="290" r="4" fill="#33F0D0" opacity="0.5"/>
  <circle cx="250" cy="290" r="8" fill="#33F0D0" opacity="0.1"/>
  <!-- Grid lines for map -->
  <line x1="75" y1="295" x2="285" y2="295" stroke="#222" stroke-width="0.3"/>
  <line x1="75" y1="320" x2="285" y2="320" stroke="#222" stroke-width="0.3"/>
  <line x1="150" y1="270" x2="150" y2="345" stroke="#222" stroke-width="0.3"/>
  <line x1="225" y1="270" x2="225" y2="345" stroke="#222" stroke-width="0.3"/>
  <!-- Catering packages -->
  <rect x="320" y="240" width="105" height="120" rx="8" fill="#151515" stroke="#222" stroke-width="0.5"/>
  <rect x="335" y="253" width="50" height="5" rx="1" fill="#ccc"/>
  <rect x="335" y="263" width="70" height="4" rx="1" fill="#555"/>
  <rect x="335" y="278" width="75" height="3" rx="1" fill="#444"/>
  <rect x="335" y="286" width="65" height="3" rx="1" fill="#444"/>
  <rect x="335" y="294" width="70" height="3" rx="1" fill="#444"/>
  <text x="335" y="320" fill="#F03350" font-family="sans-serif" font-size="14" font-weight="bold" opacity="0.7">$299</text>
  <rect x="335" y="332" width="60" height="16" rx="8" fill="#F03350" opacity="0.2"/>
  <rect x="345" y="337" width="40" height="6" rx="1" fill="#F03350" opacity="0.5"/>
  <rect x="435" y="240" width="105" height="120" rx="8" fill="#151515" stroke="#F03350" stroke-width="0.8" opacity="0.6"/>
  <rect x="450" y="248" width="30" height="12" rx="6" fill="#F03350" opacity="0.2"/>
  <rect x="455" y="251" width="20" height="6" rx="1" fill="#F03350" opacity="0.5"/>
  <rect x="450" y="268" width="55" height="5" rx="1" fill="#ccc"/>
  <rect x="450" y="278" width="75" height="4" rx="1" fill="#555"/>
  <rect x="450" y="293" width="70" height="3" rx="1" fill="#444"/>
  <rect x="450" y="301" width="60" height="3" rx="1" fill="#444"/>
  <rect x="450" y="309" width="65" height="3" rx="1" fill="#444"/>
  <text x="450" y="335" fill="#F03350" font-family="sans-serif" font-size="14" font-weight="bold" opacity="0.7">$499</text>
  <rect x="450" y="345" width="60" height="16" rx="8" fill="#F03350" opacity="0.4"/>
  <rect x="460" y="350" width="40" height="6" rx="1" fill="#fff" opacity="0.8"/>
</svg>
