<svg xmlns="http://www.w3.org/2000/svg" viewBox="0 0 600 400" fill="none">
  <rect width="600" height="400" fill="#0a0a0a"/>
  <!-- App frame -->
  <rect x="40" y="30" width="520" height="340" rx="12" fill="#111" stroke="#222" stroke-width="1.5"/>
  <!-- Sidebar -->
  <rect x="40" y="30" width="160" height="340" rx="12" fill="#0d0d0d"/>
  <rect x="200" y="30" width="1" height="340" fill="#1a1a1a"/>
  <!-- Sidebar logo -->
  <rect x="56" y="50" width="60" height="10" rx="2" fill="#F03350" opacity="0.5"/>
  <!-- Sidebar nav items -->
  <rect x="56" y="85" width="128" height="28" rx="6" fill="#F03350" opacity="0.08"/>
  <rect x="68" y="93" width="14" height="14" rx="3" fill="#F03350" opacity="0.3"/>
  <rect x="90" y="96" width="60" height="5" rx="1" fill="#F03350" opacity="0.6"/>
  <rect x="68" y="125" width="14" height="14" rx="3" fill="#222"/>
  <rect x="90" y="128" width="50" height="5" rx="1" fill="#555"/>
  <rect x="68" y="155" width="14" height="14" rx="3" fill="#222"/>
  <rect x="90" y="158" width="70" height="5" rx="1" fill="#555"/>
  <rect x="68" y="185" width="14" height="14" rx="3" fill="#222"/>
  <rect x="90" y="188" width="55" height="5" rx="1" fill="#555"/>
  <rect x="68" y="215" width="14" height="14" rx="3" fill="#222"/>
  <rect x="90" y="218" width="65" height="5" rx="1" fill="#555"/>
  <!-- Sidebar user -->
  <circle cx="75" cy="340" r="14" fill="#1a1a1a"/>
  <rect x="95" y="334" width="55" height="5" rx="1" fill="#ccc"/>
  <rect x="95" y="343" width="40" height="4" rx="1" fill="#555"/>
  <!-- Main content header -->
  <rect x="220" y="50" width="120" height="8" rx="1" fill="#fff" opacity="0.7"/>
  <rect x="220" y="64" width="80" height="4" rx="1" fill="#666"/>
  <!-- Action buttons -->
  <rect x="460" y="46" width="80" height="26" rx="8" fill="#F03350" opacity="0.2"/>
  <rect x="475" y="55" width="50" height="8" rx="1" fill="#F03350" opacity="0.6"/>
  <!-- Content cards grid -->
  <rect x="220" y="90" width="160" height="100" rx="8" fill="#151515" stroke="#222" stroke-width="0.5"/>
  <rect x="236" y="106" width="30" height="30" rx="8" fill="#F03350" opacity="0.08"/>
  <rect x="274" y="110" width="80" height="5" rx="1" fill="#ccc"/>
  <rect x="274" y="120" width="60" height="4" rx="1" fill="#555"/>
  <rect x="236" y="148" width="128" height="6" rx="3" fill="#1a1a1a"/>
  <rect x="236" y="148" width="85" height="6" rx="3" fill="#F03350" opacity="0.3"/>
  <rect x="236" y="164" width="50" height="4" rx="1" fill="#33F0D0" opacity="0.5"/>
  <rect x="220" y="200" width="160" height="100" rx="8" fill="#151515" stroke="#222" stroke-width="0.5"/>
  <rect x="236" y="216" width="30" height="30" rx="8" fill="#33F0D0" opacity="0.08"/>
  <rect x="274" y="220" width="90" height="5" rx="1" fill="#ccc"/>
  <rect x="274" y="230" width="55" height="4" rx="1" fill="#555"/>
  <rect x="236" y="258" width="128" height="6" rx="3" fill="#1a1a1a"/>
  <rect x="236" y="258" width="115" height="6" rx="3" fill="#33F0D0" opacity="0.3"/>
  <rect x="236" y="274" width="60" height="4" rx="1" fill="#33F0D0" opacity="0.5"/>
  <!-- Right panel - Table/List -->
  <rect x="395" y="90" width="145" height="210" rx="8" fill="#151515" stroke="#222" stroke-width="0.5"/>
  <rect x="411" y="106" width="60" height="5" rx="1" fill="#fff" opacity="0.5"/>
  <!-- Table rows -->
  <line x1="411" y1="124" x2="524" y2="124" stroke="#222" stroke-width="0.5"/>
  <rect x="411" y="132" width="80" height="4" rx="1" fill="#555"/>
  <rect x="500" y="132" width="24" height="4" rx="1" fill="#33F0D0" opacity="0.5"/>
  <line x1="411" y1="146" x2="524" y2="146" stroke="#222" stroke-width="0.5"/>
  <rect x="411" y="154" width="70" height="4" rx="1" fill="#555"/>
  <rect x="500" y="154" width="24" height="4" rx="1" fill="#F03350" opacity="0.5"/>
  <line x1="411" y1="168" x2="524" y2="168" stroke="#222" stroke-width="0.5"/>
  <rect x="411" y="176" width="90" height="4" rx="1" fill="#555"/>
  <rect x="500" y="176" width="24" height="4" rx="1" fill="#33F0D0" opacity="0.5"/>
  <line x1="411" y1="190" x2="524" y2="190" stroke="#222" stroke-width="0.5"/>
  <rect x="411" y="198" width="75" height="4" rx="1" fill="#555"/>
  <rect x="500" y="198" width="24" height="4" rx="1" fill="#33F0D0" opacity="0.5"/>
  <line x1="411" y1="212" x2="524" y2="212" stroke="#222" stroke-width="0.5"/>
  <rect x="411" y="220" width="85" height="4" rx="1" fill="#555"/>
  <rect x="500" y="220" width="24" height="4" rx="1" fill="#F03350" opacity="0.5"/>
  <line x1="411" y1="234" x2="524" y2="234" stroke="#222" stroke-width="0.5"/>
  <rect x="411" y="242" width="65" height="4" rx="1" fill="#555"/>
  <rect x="500" y="242" width="24" height="4" rx="1" fill="#33F0D0" opacity="0.5"/>
  <!-- Bottom bar -->
  <rect x="220" y="315" width="320" height="40" rx="8" fill="#151515" stroke="#222" stroke-width="0.5"/>
  <rect x="240" y="330" width="80" height="5" rx="1" fill="#666"/>
  <rect x="476" y="326" width="50" height="14" rx="7" fill="#F03350" opacity="0.15"/>
  <rect x="486" y="330" width="30" height="6" rx="1" fill="#F03350" opacity="0.5"/>
</svg>