<svg xmlns="http://www.w3.org/2000/svg" viewBox="0 0 600 400" fill="none">
  <rect width="600" height="400" fill="#0a0a0a"/>
  <!-- Jamaica island shape abstracted -->
  <path d="M180 180 Q220 150 300 155 Q380 150 420 175 Q440 195 430 215 Q400 240 340 245 Q280 250 230 235 Q190 220 175 200 Z" fill="#F03350" opacity="0.03" stroke="#F03350" stroke-width="0.8" opacity="0.15"/>
  <!-- Connection lines from Kingston area -->
  <line x1="300" y1="200" x2="100" y2="100" stroke="#F03350" stroke-width="0.5" opacity="0.2"/>
  <line x1="300" y1="200" x2="500" y2="100" stroke="#33F0D0" stroke-width="0.5" opacity="0.2"/>
  <line x1="300" y1="200" x2="120" y2="320" stroke="#33F0D0" stroke-width="0.5" opacity="0.2"/>
  <line x1="300" y1="200" x2="480" y2="320" stroke="#F03350" stroke-width="0.5" opacity="0.2"/>
  <line x1="300" y1="200" x2="300" y2="350" stroke="#F03350" stroke-width="0.5" opacity="0.15"/>
  <!-- Central node - Kingston HQ -->
  <circle cx="300" cy="200" r="32" fill="#151515" stroke="#F03350" stroke-width="1.5" opacity="0.7"/>
  <circle cx="300" cy="192" r="11" fill="#333"/>
  <rect x="282" y="208" width="36" height="4" rx="1" fill="#F03350" opacity="0.6"/>
  <rect x="288" y="216" width="24" height="3" rx="1" fill="#555"/>
  <!-- Team members -->
  <circle cx="100" cy="100" r="26" fill="#151515" stroke="#222" stroke-width="1"/>
  <circle cx="100" cy="92" r="9" fill="#333"/>
  <rect x="88" y="106" width="24" height="3" rx="1" fill="#ccc"/>
  <rect x="92" y="113" width="16" height="3" rx="1" fill="#555"/>
  <circle cx="500" cy="100" r="26" fill="#151515" stroke="#222" stroke-width="1"/>
  <circle cx="500" cy="92" r="9" fill="#333"/>
  <rect x="488" y="106" width="24" height="3" rx="1" fill="#ccc"/>
  <rect x="492" y="113" width="16" height="3" rx="1" fill="#555"/>
  <circle cx="120" cy="320" r="26" fill="#151515" stroke="#33F0D0" stroke-width="0.8" opacity="0.5"/>
  <circle cx="120" cy="312" r="9" fill="#333"/>
  <rect x="108" y="326" width="24" height="3" rx="1" fill="#ccc"/>
  <rect x="112" y="333" width="16" height="3" rx="1" fill="#555"/>
  <circle cx="480" cy="320" r="26" fill="#151515" stroke="#F03350" stroke-width="0.8" opacity="0.5"/>
  <circle cx="480" cy="312" r="9" fill="#333"/>
  <rect x="468" y="326" width="24" height="3" rx="1" fill="#ccc"/>
  <rect x="472" y="333" width="16" height="3" rx="1" fill="#555"/>
  <circle cx="300" cy="350" r="22" fill="#151515" stroke="#222" stroke-width="1"/>
  <circle cx="300" cy="343" r="8" fill="#333"/>
  <rect x="290" y="356" width="20" height="3" rx="1" fill="#999"/>
  <!-- Stat cards -->
  <rect x="40" y="45" width="110" height="55" rx="8" fill="#151515" stroke="#222" stroke-width="0.8"/>
  <rect x="54" y="57" width="50" height="4" rx="1" fill="#666"/>
  <text x="54" y="81" fill="#F03350" font-family="sans-serif" font-size="16" font-weight="bold" opacity="0.8">Kingston</text>
  <rect x="450" y="45" width="110" height="55" rx="8" fill="#151515" stroke="#222" stroke-width="0.8"/>
  <rect x="464" y="57" width="55" height="4" rx="1" fill="#666"/>
  <text x="464" y="81" fill="#33F0D0" font-family="sans-serif" font-size="14" font-weight="bold" opacity="0.8">Montego Bay</text>
  <!-- Jamaica accent colors (gold/green/black flag inspiration) -->
  <rect x="268" y="160" width="64" height="3" rx="1.5" fill="#F03350" opacity="0.3"/>
  <!-- Pulse rings -->
  <circle cx="300" cy="200" r="48" fill="none" stroke="#F03350" stroke-width="0.4" opacity="0.12"/>
  <circle cx="300" cy="200" r="68" fill="none" stroke="#F03350" stroke-width="0.3" opacity="0.06"/>
</svg>