<svg xmlns="http://www.w3.org/2000/svg" viewBox="0 0 600 400" fill="none">
  <rect width="600" height="400" fill="#0a0a0a"/>
  <!-- Phone frame -->
  <rect x="200" y="20" width="200" height="360" rx="24" fill="#111" stroke="#222" stroke-width="1.5"/>
  <rect x="212" y="40" width="176" height="310" rx="4" fill="#0d0d0d"/>
  <!-- Status bar -->
  <rect x="255" y="24" width="90" height="6" rx="3" fill="#222"/>
  <!-- Hero image area -->
  <rect x="212" y="40" width="176" height="100" fill="#1a1a1a"/>
  <circle cx="300" cy="80" r="18" fill="#F03350" opacity="0.15"/>
  <rect x="282" y="72" width="36" height="4" rx="1" fill="#F03350" opacity="0.6"/>
  <rect x="270" y="80" width="60" height="3" rx="1" fill="#666"/>
  <rect x="285" y="87" width="30" height="3" rx="1" fill="#444"/>
  <!-- Menu section -->
  <rect x="222" y="150" width="60" height="5" rx="1" fill="#fff" opacity="0.7"/>
  <rect x="222" y="160" width="35" height="3" rx="1" fill="#666"/>
  <!-- Menu items -->
  <rect x="222" y="175" width="156" height="38" rx="6" fill="#151515" stroke="#222" stroke-width="0.5"/>
  <circle cx="242" cy="194" r="12" fill="#1a1a1a"/>
  <rect x="260" y="185" width="65" height="4" rx="1" fill="#ccc"/>
  <rect x="260" y="193" width="90" height="3" rx="1" fill="#555"/>
  <rect x="260" y="200" width="30" height="4" rx="1" fill="#F03350" opacity="0.7"/>
  <rect x="222" y="220" width="156" height="38" rx="6" fill="#151515" stroke="#222" stroke-width="0.5"/>
  <circle cx="242" cy="239" r="12" fill="#1a1a1a"/>
  <rect x="260" y="230" width="55" height="4" rx="1" fill="#ccc"/>
  <rect x="260" y="238" width="80" height="3" rx="1" fill="#555"/>
  <rect x="260" y="245" width="35" height="4" rx="1" fill="#F03350" opacity="0.7"/>
  <rect x="222" y="265" width="156" height="38" rx="6" fill="#151515" stroke="#222" stroke-width="0.5"/>
  <circle cx="242" cy="284" r="12" fill="#1a1a1a"/>
  <rect x="260" y="275" width="70" height="4" rx="1" fill="#ccc"/>
  <rect x="260" y="283" width="85" height="3" rx="1" fill="#555"/>
  <rect x="260" y="290" width="28" height="4" rx="1" fill="#F03350" opacity="0.7"/>
  <!-- Bottom nav -->
  <rect x="212" y="315" width="176" height="35" fill="#111"/>
  <rect x="240" y="325" width="16" height="16" rx="3" fill="#222"/>
  <rect x="270" y="325" width="16" height="16" rx="3" fill="#F03350" opacity="0.5"/>
  <rect x="300" y="325" width="16" height="16" rx="3" fill="#222"/>
  <rect x="330" y="325" width="16" height="16" rx="3" fill="#222"/>
  <!-- Home bar -->
  <rect x="260" y="370" width="80" height="4" rx="2" fill="#333"/>
  <!-- Floating elements -->
  <rect x="80" y="120" width="100" height="70" rx="10" fill="#151515" stroke="#222" stroke-width="0.8"/>
  <rect x="92" y="132" width="28" height="28" rx="6" fill="#F03350" opacity="0.12"/>
  <rect x="92" y="168" width="50" height="4" rx="1" fill="#ccc"/>
  <rect x="92" y="176" width="70" height="3" rx="1" fill="#555"/>
  <rect x="420" y="180" width="100" height="70" rx="10" fill="#151515" stroke="#222" stroke-width="0.8"/>
  <circle cx="446" cy="208" r="8" fill="#33F0D0" opacity="0.2"/>
  <rect x="460" y="200" width="45" height="4" rx="1" fill="#33F0D0" opacity="0.6"/>
  <rect x="460" y="208" width="35" height="3" rx="1" fill="#555"/>
  <rect x="432" y="228" width="72" height="12" rx="6" fill="#F03350" opacity="0.15"/>
  <rect x="442" y="231" width="52" height="6" rx="1" fill="#F03350" opacity="0.5"/>
</svg>